<svg width="246" height="244" viewBox="0 0 246 244" fill="none" xmlns="http://www.w3.org/2000/svg">
<path style="mix-blend-mode:multiply" opacity="0.83" d="M192.59 74.433C176.449 57.9817 155.102 47.6362 132.188 45.1591C109.274 42.6821 86.21 48.2268 66.9258 60.8486C47.6415 73.4703 33.3302 92.3881 26.4304 114.379C19.5306 136.369 20.4692 160.072 29.0862 181.448C37.7032 202.824 53.4655 220.551 73.6874 231.608C93.9093 242.666 117.34 246.37 139.986 242.088C162.633 237.807 183.094 225.806 197.884 208.13C212.674 190.454 220.878 168.197 221.097 145.15C221.238 132.066 218.793 119.083 213.901 106.947C209.008 94.8107 201.766 83.7611 192.59 74.433Z" fill="url(#paint0_radial)"/>
<path d="M10.355 130.74C10.2246 144.429 12.7917 158.009 17.9097 170.706C23.0277 183.402 30.5964 194.966 40.1836 204.738C49.7708 214.509 61.1887 222.297 73.7856 227.656C86.3824 233.015 99.9113 235.84 113.6 235.97L114.592 131.733L10.355 130.74Z" fill="#FCC103"/>
<path d="M51.341 131.133C51.2618 139.439 52.8195 147.68 55.9251 155.384C59.0306 163.089 63.6233 170.106 69.4408 176.035C75.2583 181.965 82.1867 186.69 89.8305 189.942C97.4743 193.194 105.684 194.908 113.99 194.987L114.59 131.735L51.341 131.133Z" fill="#F97F06"/>
<path d="M34.336 49.934C23.5778 60.4615 15.0062 73.0112 9.11363 86.8619C3.2211 100.713 0.123896 115.591 0 130.643L114.593 131.735L115.685 17.142C100.634 16.979 85.6986 19.7921 71.738 25.4197C57.7774 31.0472 45.0665 39.3783 34.336 49.934Z" fill="#35BAE9"/>
<path d="M70.293 86.584C64.3551 92.395 59.624 99.3222 56.3716 106.967C53.1191 114.613 51.4095 122.825 51.341 131.133L114.593 131.733L115.193 68.481C106.885 68.392 98.642 69.9455 90.9366 73.0522C83.2312 76.1589 76.2156 80.7576 70.293 86.584Z" fill="#1891B2"/>
<path d="M208.392 39.706C196.32 27.3701 181.93 17.5414 166.048 10.7848C150.165 4.02816 133.104 0.476881 115.845 0.335022L114.593 131.735L245.993 132.986C246.18 115.727 242.954 98.6017 236.501 82.5936C230.049 66.5855 220.496 52.0104 208.392 39.706Z" fill="#42DABF"/>
<path d="M159.745 87.436C153.934 81.4977 147.007 76.7664 139.362 73.514C131.717 70.2615 123.504 68.5521 115.196 68.484L114.596 131.736L177.848 132.336C177.938 124.028 176.384 115.785 173.278 108.079C170.171 100.374 165.572 93.3582 159.745 87.436Z" fill="#1AA086"/>
<path d="M114.594 131.736L113.702 225.448C138.555 225.684 162.484 216.037 180.225 198.63C197.966 181.223 208.065 157.482 208.302 132.629L114.594 131.736Z" fill="#F9327A"/>
<path style="mix-blend-mode:multiply" opacity="0.08" d="M100.396 18.013L99.314 131.59L114.593 131.735L115.687 17.142C110.576 17.0935 105.468 17.3845 100.396 18.013Z" fill="url(#paint1_linear)"/>
<path style="mix-blend-mode:multiply" opacity="0.08" d="M114.496 141.921L114.596 131.735L10.355 130.74C10.322 134.176 10.461 137.575 10.755 140.931L114.496 141.921Z" fill="url(#paint2_linear)"/>
<path d="M114.593 131.736L113.993 194.988C130.768 195.147 146.919 188.636 158.894 176.888C170.868 165.139 177.685 149.114 177.845 132.339L114.593 131.736Z" fill="#CE2469"/>
<path style="mix-blend-mode:multiply" opacity="0.08" d="M132.589 131.907L114.589 131.736L113.697 225.448C119.737 225.507 125.769 224.984 131.709 223.886L132.589 131.907Z" fill="url(#paint3_linear)"/>
<path style="mix-blend-mode:multiply" opacity="0.08" d="M114.755 114.759L114.593 131.735L245.993 132.986C246.048 127.31 245.738 121.636 245.066 116L114.755 114.759Z" fill="url(#paint4_linear)"/>
<path style="mix-blend-mode:multiply" opacity="0.83" d="M156.536 109.758C149.191 102.272 139.478 97.5644 129.052 96.4371C118.625 95.3098 108.13 97.8327 99.3551 103.576C90.5801 109.319 84.068 117.927 80.9282 127.933C77.7885 137.94 78.2154 148.725 82.1363 158.452C86.0572 168.179 93.2295 176.245 102.431 181.277C111.632 186.308 122.294 187.994 132.599 186.046C142.904 184.098 152.214 178.637 158.944 170.594C165.674 162.551 169.407 152.423 169.507 141.936C169.572 135.982 168.459 130.075 166.233 124.553C164.007 119.03 160.711 114.002 156.536 109.758Z" fill="url(#paint5_radial)"/>
<path d="M146.951 99.989C139.606 92.5026 129.892 87.7945 119.465 86.667C109.038 85.5395 98.5428 88.0624 89.7674 93.8058C80.9919 99.5491 74.4793 108.158 71.3394 118.164C68.1994 128.171 68.6264 138.957 72.5475 148.685C76.4686 158.412 83.6412 166.479 92.8432 171.51C102.045 176.542 112.707 178.227 123.013 176.279C133.318 174.331 142.629 168.87 149.359 160.826C156.089 152.783 159.822 142.654 159.922 132.167C159.986 126.213 158.873 120.306 156.647 114.784C154.421 109.262 151.126 104.234 146.951 99.989Z" fill="white"/>
<path d="M164.81 75.882L169.635 65.3351H163.298V63.05H172.518V64.7551L167.658 75.882H164.81ZM178.495 67.673C179.737 67.673 180.724 68.0217 181.457 68.7189C182.195 69.4162 182.564 70.3713 182.564 71.5842C182.564 73.0197 182.122 74.1242 181.237 74.8976C180.352 75.6711 179.086 76.0578 177.44 76.0578C176.01 76.0578 174.856 75.8264 173.977 75.3635V73.0168C174.44 73.2629 174.979 73.465 175.594 73.6232C176.21 73.7756 176.793 73.8517 177.343 73.8517C179.002 73.8517 179.831 73.1721 179.831 71.8127C179.831 70.5178 178.972 69.8703 177.255 69.8703C176.945 69.8703 176.602 69.9025 176.227 69.967C175.852 70.0256 175.547 70.09 175.313 70.1603L174.232 69.5803L174.715 63.0324H181.685V65.3351H177.097L176.86 67.8576L177.168 67.7961C177.525 67.7141 177.967 67.673 178.495 67.673ZM186.15 66.882C186.15 67.6262 186.214 68.1828 186.343 68.5519C186.478 68.9152 186.692 69.0969 186.985 69.0969C187.547 69.0969 187.829 68.3586 187.829 66.882C187.829 65.4172 187.547 64.6848 186.985 64.6848C186.692 64.6848 186.478 64.8664 186.343 65.2297C186.214 65.5871 186.15 66.1379 186.15 66.882ZM190.044 66.8644C190.044 68.2121 189.783 69.2258 189.261 69.9055C188.74 70.5793 187.975 70.9162 186.967 70.9162C186.001 70.9162 185.253 70.5705 184.726 69.8791C184.199 69.1818 183.935 68.1769 183.935 66.8644C183.935 64.1867 184.946 62.8478 186.967 62.8478C187.958 62.8478 188.716 63.1965 189.244 63.8937C189.777 64.5851 190.044 65.5754 190.044 66.8644ZM196.09 63.0324L188.962 75.882H186.853L193.981 63.0324H196.09ZM195.15 72.0148C195.15 72.759 195.214 73.3156 195.343 73.6848C195.478 74.048 195.692 74.2297 195.985 74.2297C196.547 74.2297 196.829 73.4914 196.829 72.0148C196.829 70.55 196.547 69.8176 195.985 69.8176C195.692 69.8176 195.478 69.9992 195.343 70.3625C195.214 70.7199 195.15 71.2707 195.15 72.0148ZM199.044 71.9973C199.044 73.3391 198.783 74.3498 198.261 75.0295C197.74 75.7033 196.975 76.0402 195.967 76.0402C195.001 76.0402 194.253 75.6945 193.726 75.0031C193.199 74.3058 192.935 73.3039 192.935 71.9973C192.935 69.3195 193.946 67.9807 195.967 67.9807C196.958 67.9807 197.716 68.3293 198.244 69.0266C198.777 69.718 199.044 70.7082 199.044 71.9973Z" fill="#1AA086"/>
<path d="M52.1857 194.075H46.6964V192.92L48.6676 190.928C49.2513 190.33 49.6326 189.916 49.8117 189.687C49.9907 189.454 50.1196 189.239 50.1984 189.042C50.2772 188.845 50.3165 188.641 50.3165 188.43C50.3165 188.115 50.2288 187.88 50.0534 187.726C49.8815 187.572 49.6505 187.495 49.3605 187.495C49.0561 187.495 48.7607 187.565 48.4743 187.705C48.1878 187.845 47.8888 188.043 47.5773 188.301L46.6749 187.232C47.0617 186.903 47.3821 186.67 47.6364 186.534C47.8906 186.398 48.1681 186.294 48.4689 186.222C48.7697 186.147 49.1063 186.11 49.4787 186.11C49.9692 186.11 50.4025 186.199 50.7785 186.378C51.1544 186.557 51.4463 186.808 51.6539 187.13C51.8616 187.452 51.9655 187.821 51.9655 188.237C51.9655 188.598 51.901 188.938 51.7721 189.257C51.6468 189.572 51.4498 189.896 51.1813 190.229C50.9163 190.562 50.4472 191.037 49.7741 191.653L48.7643 192.603V192.679H52.1857V194.075ZM58.4269 190.149C58.4269 191.52 58.2013 192.535 57.7501 193.194C57.3025 193.853 56.6115 194.182 55.6769 194.182C54.771 194.182 54.0871 193.842 53.6251 193.162C53.1668 192.482 52.9376 191.477 52.9376 190.149C52.9376 188.763 53.1614 187.742 53.609 187.087C54.0566 186.428 54.7459 186.099 55.6769 186.099C56.5828 186.099 57.2667 186.443 57.7287 187.13C58.1941 187.818 58.4269 188.824 58.4269 190.149ZM54.5866 190.149C54.5866 191.112 54.6689 191.803 54.8336 192.222C55.0019 192.637 55.283 192.845 55.6769 192.845C56.0636 192.845 56.3429 192.634 56.5148 192.211C56.6867 191.789 56.7726 191.101 56.7726 190.149C56.7726 189.186 56.6849 188.494 56.5094 188.076C56.3375 187.653 56.06 187.442 55.6769 187.442C55.2866 187.442 55.0073 187.653 54.839 188.076C54.6707 188.494 54.5866 189.186 54.5866 190.149ZM60.5163 188.575C60.5163 189.03 60.5556 189.37 60.6344 189.596C60.7168 189.818 60.8475 189.929 61.0265 189.929C61.3703 189.929 61.5421 189.477 61.5421 188.575C61.5421 187.68 61.3703 187.232 61.0265 187.232C60.8475 187.232 60.7168 187.343 60.6344 187.565C60.5556 187.784 60.5163 188.12 60.5163 188.575ZM62.8956 188.564C62.8956 189.388 62.7363 190.007 62.4176 190.423C62.0989 190.834 61.6316 191.04 61.0158 191.04C60.4249 191.04 59.9684 190.829 59.6461 190.407C59.3239 189.98 59.1627 189.366 59.1627 188.564C59.1627 186.928 59.7804 186.11 61.0158 186.11C61.6209 186.11 62.0846 186.323 62.4069 186.749C62.7327 187.171 62.8956 187.777 62.8956 188.564ZM66.591 186.222L62.235 194.075H60.9459L65.3019 186.222H66.591ZM66.0163 191.712C66.0163 192.166 66.0556 192.507 66.1344 192.732C66.2168 192.954 66.3475 193.065 66.5265 193.065C66.8703 193.065 67.0421 192.614 67.0421 191.712C67.0421 190.817 66.8703 190.369 66.5265 190.369C66.3475 190.369 66.2168 190.48 66.1344 190.702C66.0556 190.92 66.0163 191.257 66.0163 191.712ZM68.3956 191.701C68.3956 192.521 68.2363 193.139 67.9176 193.554C67.5989 193.966 67.1316 194.172 66.5158 194.172C65.9249 194.172 65.4684 193.96 65.1461 193.538C64.8239 193.112 64.6627 192.499 64.6627 191.701C64.6627 190.065 65.2804 189.246 66.5158 189.246C67.1209 189.246 67.5846 189.459 67.9069 189.886C68.2327 190.308 68.3956 190.913 68.3956 191.701Z" fill="#F97F06"/>
<path d="M158.921 189.037C159.68 189.037 160.283 189.25 160.731 189.677C161.182 190.103 161.408 190.686 161.408 191.428C161.408 192.305 161.137 192.98 160.597 193.452C160.056 193.925 159.283 194.161 158.276 194.161C157.403 194.161 156.697 194.02 156.16 193.737V192.303C156.443 192.453 156.772 192.577 157.148 192.674C157.524 192.767 157.881 192.813 158.217 192.813C159.231 192.813 159.737 192.398 159.737 191.567C159.737 190.776 159.213 190.38 158.164 190.38C157.974 190.38 157.764 190.4 157.535 190.439C157.306 190.475 157.12 190.514 156.977 190.557L156.316 190.203L156.611 186.201H160.871V187.609H158.067L157.922 189.15L158.11 189.113C158.328 189.062 158.599 189.037 158.921 189.037ZM163.599 188.554C163.599 189.009 163.638 189.349 163.717 189.575C163.8 189.797 163.93 189.908 164.109 189.908C164.453 189.908 164.625 189.456 164.625 188.554C164.625 187.659 164.453 187.211 164.109 187.211C163.93 187.211 163.8 187.322 163.717 187.544C163.638 187.763 163.599 188.099 163.599 188.554ZM165.978 188.543C165.978 189.367 165.819 189.986 165.5 190.402C165.182 190.813 164.714 191.019 164.099 191.019C163.508 191.019 163.051 190.808 162.729 190.386C162.407 189.959 162.246 189.345 162.246 188.543C162.246 186.907 162.863 186.089 164.099 186.089C164.704 186.089 165.167 186.302 165.49 186.728C165.816 187.15 165.978 187.756 165.978 188.543ZM169.674 186.201L165.318 194.054H164.029L168.385 186.201H169.674ZM169.099 191.691C169.099 192.145 169.138 192.486 169.217 192.711C169.3 192.933 169.43 193.044 169.609 193.044C169.953 193.044 170.125 192.593 170.125 191.691C170.125 190.796 169.953 190.348 169.609 190.348C169.43 190.348 169.3 190.459 169.217 190.681C169.138 190.899 169.099 191.236 169.099 191.691ZM171.478 191.68C171.478 192.5 171.319 193.118 171 193.533C170.682 193.945 170.214 194.151 169.599 194.151C169.008 194.151 168.551 193.939 168.229 193.517C167.907 193.091 167.746 192.478 167.746 191.68C167.746 190.044 168.363 189.225 169.599 189.225C170.204 189.225 170.667 189.438 170.99 189.865C171.316 190.287 171.478 190.892 171.478 191.68Z" fill="#CE2469"/>
<path d="M46.8521 67.5102C47.8872 67.5102 48.71 67.8007 49.3203 68.3818C49.9356 68.9628 50.2432 69.7587 50.2432 70.7695C50.2432 71.9658 49.8745 72.8862 49.1372 73.5307C48.3999 74.1752 47.3452 74.4975 45.9732 74.4975C44.7818 74.4975 43.8198 74.3046 43.0874 73.9189V71.9633C43.4732 72.1684 43.9224 72.3369 44.4351 72.4687C44.9478 72.5956 45.4336 72.6591 45.8926 72.6591C47.2744 72.6591 47.9653 72.0927 47.9653 70.9599C47.9653 69.8808 47.25 69.3412 45.8194 69.3412C45.5606 69.3412 45.2749 69.3681 44.9624 69.4218C44.6499 69.4706 44.396 69.5244 44.2007 69.5829L43.2998 69.0995L43.7027 63.643H49.5108V65.562H45.6875L45.4898 67.664L45.7461 67.6127C46.044 67.5444 46.4126 67.5102 46.8521 67.5102ZM58.9517 68.997C58.9517 70.8671 58.6441 72.2514 58.0288 73.1498C57.4185 74.0483 56.4761 74.4975 55.2017 74.4975C53.9663 74.4975 53.0337 74.0336 52.4038 73.1059C51.7788 72.1782 51.4663 70.8085 51.4663 68.997C51.4663 67.1074 51.7715 65.7158 52.3819 64.8222C52.9922 63.9238 53.9321 63.4745 55.2017 63.4745C56.437 63.4745 57.3696 63.9433 57.9995 64.8808C58.6343 65.8183 58.9517 67.1904 58.9517 68.997ZM53.7149 68.997C53.7149 70.3105 53.8272 71.2529 54.0518 71.8242C54.2813 72.3906 54.6646 72.6738 55.2017 72.6738C55.729 72.6738 56.1099 72.3857 56.3443 71.8095C56.5786 71.2333 56.6958 70.2958 56.6958 68.997C56.6958 67.6835 56.5762 66.7411 56.3369 66.1699C56.1026 65.5937 55.7241 65.3056 55.2017 65.3056C54.6694 65.3056 54.2886 65.5937 54.0591 66.1699C53.8296 66.7411 53.7149 67.6835 53.7149 68.997ZM61.8008 66.851C61.8008 67.4711 61.8545 67.935 61.9619 68.2426C62.0742 68.5453 62.2525 68.6967 62.4966 68.6967C62.9653 68.6967 63.1997 68.0815 63.1997 66.851C63.1997 65.6303 62.9653 65.02 62.4966 65.02C62.2525 65.02 62.0742 65.1713 61.9619 65.4741C61.8545 65.7719 61.8008 66.2309 61.8008 66.851ZM65.0454 66.8364C65.0454 67.9594 64.8281 68.8041 64.3936 69.3705C63.959 69.9321 63.3218 70.2128 62.4819 70.2128C61.6763 70.2128 61.0537 69.9247 60.6143 69.3486C60.1748 68.7675 59.9551 67.9301 59.9551 66.8364C59.9551 64.6049 60.7974 63.4892 62.4819 63.4892C63.3071 63.4892 63.9395 63.7797 64.3789 64.3608C64.8233 64.937 65.0454 65.7621 65.0454 66.8364ZM70.0845 63.643L64.1445 74.351H62.3867L68.3267 63.643H70.0845ZM69.3008 71.1284C69.3008 71.7485 69.3545 72.2123 69.4619 72.52C69.5742 72.8227 69.7525 72.9741 69.9966 72.9741C70.4653 72.9741 70.6997 72.3588 70.6997 71.1284C70.6997 69.9077 70.4653 69.2973 69.9966 69.2973C69.7525 69.2973 69.5742 69.4487 69.4619 69.7514C69.3545 70.0493 69.3008 70.5082 69.3008 71.1284ZM72.5454 71.1137C72.5454 72.2319 72.3281 73.0742 71.8936 73.6406C71.459 74.2021 70.8218 74.4828 69.9819 74.4828C69.1763 74.4828 68.5537 74.1948 68.1143 73.6186C67.6748 73.0375 67.4551 72.2026 67.4551 71.1137C67.4551 68.8823 68.2974 67.7665 69.9819 67.7665C70.8071 67.7665 71.4395 68.0571 71.8789 68.6381C72.3233 69.2143 72.5454 70.0395 72.5454 71.1137Z" fill="#1891B2"/>
<path d="M128.261 21.3089C128.261 22.249 127.993 22.969 127.456 23.469C126.922 23.969 126.15 24.219 125.14 24.219H123.523V18.5081H125.316C126.248 18.5081 126.972 18.7542 127.488 19.2464C128.003 19.7386 128.261 20.4261 128.261 21.3089ZM127.003 21.3401C127.003 20.1136 126.462 19.5003 125.378 19.5003H124.734V23.219H125.253C126.42 23.219 127.003 22.5927 127.003 21.3401ZM132.941 24.219L132.527 22.8596H130.445L130.031 24.219H128.726L130.742 18.4846H132.222L134.245 24.219H132.941ZM132.238 21.844C131.855 20.6123 131.639 19.9156 131.589 19.7542C131.542 19.5927 131.508 19.4651 131.488 19.3714C131.402 19.7047 131.156 20.5289 130.749 21.844H132.238ZM137.171 24.219H135.96V19.5159H134.409V18.5081H138.722V19.5159H137.171V24.219ZM143.097 24.219L142.683 22.8596H140.601L140.187 24.219H138.882L140.898 18.4846H142.378L144.402 24.219H143.097ZM142.394 21.844C142.011 20.6123 141.795 19.9156 141.745 19.7542C141.699 19.5927 141.665 19.4651 141.644 19.3714C141.558 19.7047 141.312 20.5289 140.906 21.844H142.394ZM148.687 21.3636C148.687 22.361 148.523 23.0992 148.195 23.5784C147.869 24.0576 147.367 24.2971 146.687 24.2971C146.028 24.2971 145.531 24.0498 145.195 23.555C144.861 23.0602 144.695 22.3297 144.695 21.3636C144.695 20.3557 144.857 19.6136 145.183 19.137C145.508 18.6578 146.01 18.4182 146.687 18.4182C147.346 18.4182 147.843 18.6682 148.179 19.1682C148.518 19.6682 148.687 20.4 148.687 21.3636ZM145.894 21.3636C145.894 22.0641 145.954 22.5667 146.074 22.8714C146.196 23.1735 146.4 23.3245 146.687 23.3245C146.968 23.3245 147.171 23.1708 147.296 22.8636C147.421 22.5563 147.484 22.0563 147.484 21.3636C147.484 20.663 147.42 20.1604 147.292 19.8557C147.167 19.5485 146.965 19.3948 146.687 19.3948C146.403 19.3948 146.2 19.5485 146.077 19.8557C145.955 20.1604 145.894 20.663 145.894 21.3636ZM152.281 24.219H151.074V20.9143L151.085 20.3714L151.105 19.7776C150.904 19.9781 150.765 20.1096 150.687 20.1721L150.031 20.6995L149.449 19.9729L151.288 18.5081H152.281V24.219Z" fill="#1AA086"/>
<path d="M14.993 111.204C14.993 112.144 14.7248 112.864 14.1883 113.364C13.6545 113.864 12.8823 114.114 11.8719 114.114H10.2547V108.403H12.0477C12.98 108.403 13.704 108.649 14.2196 109.141C14.7352 109.634 14.993 110.321 14.993 111.204ZM13.7352 111.235C13.7352 110.009 13.1935 109.395 12.1102 109.395H11.4657V113.114H11.9852C13.1519 113.114 13.7352 112.488 13.7352 111.235ZM19.6727 114.114L19.2587 112.755H17.1766L16.7626 114.114H15.4579L17.4735 108.38H18.954L20.9774 114.114H19.6727ZM18.9696 111.739C18.5868 110.507 18.3706 109.811 18.3212 109.649C18.2743 109.488 18.2404 109.36 18.2196 109.266C18.1337 109.6 17.8876 110.424 17.4813 111.739H18.9696ZM23.9032 114.114H22.6922V109.411H21.1415V108.403H25.454V109.411H23.9032V114.114ZM29.829 114.114L29.4149 112.755H27.3329L26.9188 114.114H25.6141L27.6297 108.38H29.1102L31.1337 114.114H29.829ZM29.1258 111.739C28.743 110.507 28.5269 109.811 28.4774 109.649C28.4305 109.488 28.3967 109.36 28.3758 109.266C28.2899 109.6 28.0438 110.424 27.6376 111.739H29.1258ZM35.4188 111.259C35.4188 112.256 35.2547 112.994 34.9266 113.473C34.6011 113.953 34.0985 114.192 33.4188 114.192C32.76 114.192 32.2626 113.945 31.9266 113.45C31.5933 112.955 31.4266 112.225 31.4266 111.259C31.4266 110.251 31.5894 109.509 31.9149 109.032C32.2404 108.553 32.7417 108.313 33.4188 108.313C34.0777 108.313 34.5751 108.563 34.911 109.063C35.2495 109.563 35.4188 110.295 35.4188 111.259ZM32.6258 111.259C32.6258 111.959 32.6857 112.462 32.8055 112.766C32.9279 113.068 33.1323 113.219 33.4188 113.219C33.7001 113.219 33.9032 113.066 34.0282 112.759C34.1532 112.451 34.2157 111.951 34.2157 111.259C34.2157 110.558 34.1519 110.055 34.0243 109.751C33.8993 109.443 33.6975 109.29 33.4188 109.29C33.135 109.29 32.9318 109.443 32.8094 109.751C32.687 110.055 32.6258 110.558 32.6258 111.259ZM40.0204 114.114H36.0282V113.274L37.4618 111.825C37.8863 111.39 38.1636 111.089 38.2938 110.923C38.424 110.753 38.5178 110.597 38.5751 110.454C38.6323 110.311 38.661 110.162 38.661 110.009C38.661 109.779 38.5972 109.609 38.4696 109.497C38.3446 109.385 38.1766 109.329 37.9657 109.329C37.7443 109.329 37.5295 109.38 37.3212 109.481C37.1128 109.583 36.8954 109.727 36.6688 109.915L36.0126 109.137C36.2938 108.898 36.5269 108.729 36.7118 108.63C36.8967 108.531 37.0985 108.455 37.3172 108.403C37.536 108.348 37.7808 108.321 38.0516 108.321C38.4084 108.321 38.7235 108.386 38.9969 108.516C39.2704 108.647 39.4826 108.829 39.6337 109.063C39.7847 109.298 39.8602 109.566 39.8602 109.868C39.8602 110.131 39.8133 110.378 39.7196 110.61C39.6284 110.839 39.4852 111.075 39.2899 111.317C39.0972 111.559 38.756 111.904 38.2665 112.352L37.5321 113.044V113.098H40.0204V114.114Z" fill="#1891B2"/>
<path d="M93.3529 211.637C93.3529 212.459 93.1182 213.089 92.6488 213.527C92.1817 213.964 91.5061 214.183 90.6219 214.183H89.2069V209.186H90.7758C91.5915 209.186 92.225 209.401 92.6761 209.832C93.1273 210.263 93.3529 210.864 93.3529 211.637ZM92.2523 211.664C92.2523 210.591 91.7784 210.054 90.8304 210.054H90.2665V213.308H90.7211C91.7419 213.308 92.2523 212.76 92.2523 211.664ZM97.4476 214.183L97.0853 212.994H95.2635L94.9012 214.183H93.7596L95.5233 209.165H96.8187L98.5892 214.183H97.4476ZM96.8324 212.105C96.4974 211.027 96.3083 210.418 96.265 210.276C96.224 210.135 96.1944 210.023 96.1761 209.941C96.101 210.233 95.8856 210.954 95.5302 212.105H96.8324ZM101.149 214.183H100.09V210.068H98.7328V209.186H102.506V210.068H101.149V214.183ZM106.334 214.183L105.972 212.994H104.15L103.788 214.183H102.646L104.41 209.165H105.705L107.476 214.183H106.334ZM105.719 212.105C105.384 211.027 105.195 210.418 105.152 210.276C105.111 210.135 105.081 210.023 105.063 209.941C104.988 210.233 104.772 210.954 104.417 212.105H105.719ZM111.225 211.685C111.225 212.557 111.082 213.203 110.795 213.622C110.51 214.042 110.07 214.251 109.475 214.251C108.899 214.251 108.464 214.035 108.17 213.602C107.878 213.169 107.732 212.53 107.732 211.685C107.732 210.803 107.875 210.153 108.16 209.736C108.444 209.317 108.883 209.107 109.475 209.107C110.052 209.107 110.487 209.326 110.781 209.764C111.077 210.201 111.225 210.841 111.225 211.685ZM108.782 211.685C108.782 212.297 108.834 212.737 108.939 213.004C109.046 213.268 109.225 213.4 109.475 213.4C109.722 213.4 109.899 213.266 110.009 212.997C110.118 212.728 110.173 212.291 110.173 211.685C110.173 211.072 110.117 210.632 110.005 210.365C109.896 210.096 109.719 209.962 109.475 209.962C109.227 209.962 109.049 210.096 108.942 210.365C108.835 210.632 108.782 211.072 108.782 211.685ZM115.057 210.304C115.057 210.616 114.962 210.881 114.773 211.1C114.584 211.319 114.319 211.469 113.977 211.551V211.572C114.38 211.622 114.686 211.745 114.893 211.941C115.1 212.135 115.204 212.397 115.204 212.727C115.204 213.208 115.03 213.583 114.681 213.852C114.332 214.118 113.835 214.251 113.187 214.251C112.645 214.251 112.164 214.161 111.745 213.981V213.082C111.939 213.18 112.152 213.26 112.384 213.322C112.617 213.383 112.847 213.414 113.075 213.414C113.423 213.414 113.681 213.355 113.847 213.236C114.013 213.118 114.097 212.928 114.097 212.665C114.097 212.431 114.001 212.264 113.809 212.166C113.618 212.068 113.313 212.019 112.893 212.019H112.514V211.209H112.9C113.288 211.209 113.57 211.159 113.748 211.059C113.928 210.956 114.018 210.782 114.018 210.536C114.018 210.158 113.781 209.969 113.307 209.969C113.143 209.969 112.975 209.996 112.805 210.051C112.636 210.105 112.448 210.2 112.241 210.334L111.752 209.606C112.208 209.278 112.751 209.114 113.382 209.114C113.899 209.114 114.307 209.219 114.606 209.429C114.907 209.638 115.057 209.93 115.057 210.304Z" fill="#F97F06"/>
<path d="M186.677 142.699C186.677 143.521 186.442 144.151 185.973 144.589C185.506 145.026 184.83 145.245 183.946 145.245H182.531V140.248H184.1C184.916 140.248 185.549 140.463 186 140.894C186.451 141.325 186.677 141.926 186.677 142.699ZM185.576 142.726C185.576 141.653 185.102 141.116 184.154 141.116H183.59V144.37H184.045C185.066 144.37 185.576 143.822 185.576 142.726ZM190.772 145.245L190.409 144.056H188.588L188.225 145.245H187.084L188.847 140.227H190.143L191.913 145.245H190.772ZM190.156 143.167C189.821 142.089 189.632 141.48 189.589 141.338C189.548 141.197 189.518 141.085 189.5 141.003C189.425 141.295 189.21 142.016 188.854 143.167H190.156ZM194.473 145.245H193.414V141.13H192.057V140.248H195.83V141.13H194.473V145.245ZM199.658 145.245L199.296 144.056H197.474L197.112 145.245H195.97L197.734 140.227H199.029L200.8 145.245H199.658ZM199.043 143.167C198.708 142.089 198.519 141.48 198.476 141.338C198.435 141.197 198.405 141.085 198.387 141.003C198.312 141.295 198.096 142.016 197.741 143.167H199.043ZM204.549 142.746C204.549 143.619 204.406 144.265 204.119 144.684C203.834 145.104 203.394 145.313 202.799 145.313C202.223 145.313 201.788 145.097 201.494 144.664C201.202 144.231 201.056 143.592 201.056 142.746C201.056 141.865 201.199 141.215 201.484 140.798C201.768 140.379 202.207 140.169 202.799 140.169C203.376 140.169 203.811 140.388 204.105 140.826C204.401 141.263 204.549 141.903 204.549 142.746ZM202.106 142.746C202.106 143.359 202.158 143.799 202.263 144.066C202.37 144.33 202.549 144.462 202.799 144.462C203.046 144.462 203.223 144.328 203.333 144.059C203.442 143.79 203.497 143.353 203.497 142.746C203.497 142.134 203.441 141.694 203.329 141.427C203.22 141.158 203.043 141.024 202.799 141.024C202.551 141.024 202.373 141.158 202.266 141.427C202.159 141.694 202.106 142.134 202.106 142.746ZM208.689 144.209H208.087V145.245H207.055V144.209H204.922V143.475L207.113 140.248H208.087V143.389H208.689V144.209ZM207.055 143.389V142.541C207.055 142.4 207.061 142.195 207.072 141.926C207.083 141.657 207.092 141.501 207.099 141.458H207.072C206.988 141.645 206.886 141.827 206.768 142.005L205.852 143.389H207.055Z" fill="#CE2469"/>
<path d="M120.398 138.672H108.446C108.178 138.719 107.937 138.864 107.771 139.08C107.605 139.296 107.527 139.566 107.551 139.837C107.575 140.109 107.7 140.361 107.902 140.544C108.103 140.727 108.366 140.828 108.638 140.826H110.655C110.704 141.289 110.922 141.718 111.268 142.03C111.614 142.341 112.063 142.514 112.529 142.514H116.008C116.474 142.514 116.923 142.341 117.269 142.03C117.615 141.718 117.833 141.289 117.882 140.826H120.207C120.479 140.827 120.742 140.726 120.943 140.543C121.144 140.36 121.269 140.108 121.293 139.837C121.317 139.566 121.239 139.296 121.073 139.08C120.907 138.864 120.666 138.719 120.398 138.672Z" fill="#C1C1C1"/>
<path d="M126.271 122.461C126.271 120.473 125.77 118.518 124.815 116.774C123.861 115.031 122.483 113.556 120.809 112.485C119.135 111.413 117.218 110.781 115.235 110.645C113.252 110.509 111.267 110.874 109.462 111.706C107.657 112.539 106.09 113.812 104.907 115.409C103.723 117.005 102.96 118.874 102.688 120.843C102.416 122.812 102.644 124.818 103.351 126.676C104.058 128.533 105.22 130.184 106.732 131.474C107.645 132.601 108.358 133.877 108.841 135.245H108.576C108.304 135.256 108.045 135.369 107.851 135.56C107.657 135.751 107.54 136.007 107.524 136.279C107.508 136.551 107.594 136.82 107.764 137.032C107.935 137.245 108.178 137.387 108.447 137.43H120.4C120.669 137.386 120.913 137.244 121.083 137.03C121.253 136.817 121.338 136.548 121.321 136.275C121.304 136.003 121.186 135.746 120.99 135.556C120.794 135.365 120.535 135.255 120.262 135.245H120.102C120.642 133.716 121.47 132.306 122.543 131.09C123.72 129.982 124.657 128.645 125.298 127.161C125.939 125.677 126.27 124.077 126.271 122.461ZM120.596 120.74L113.971 127.366C113.801 127.535 113.571 127.63 113.332 127.63C113.092 127.63 112.862 127.535 112.692 127.366L109.729 124.401C109.56 124.232 109.465 124.002 109.465 123.763C109.465 123.523 109.56 123.293 109.729 123.124C109.898 122.955 110.128 122.86 110.368 122.86C110.607 122.86 110.837 122.955 111.006 123.124L113.332 125.449L119.318 119.461C119.402 119.377 119.502 119.311 119.611 119.265C119.721 119.22 119.839 119.197 119.957 119.197C120.076 119.197 120.193 119.22 120.303 119.266C120.413 119.311 120.512 119.378 120.596 119.462C120.68 119.546 120.746 119.646 120.792 119.755C120.837 119.865 120.86 119.983 120.86 120.101C120.86 120.22 120.837 120.337 120.791 120.447C120.746 120.557 120.679 120.656 120.595 120.74H120.596Z" fill="#C1C1C1"/>
<path d="M114.424 99.207C114.109 99.2078 113.807 99.3334 113.584 99.5562C113.361 99.779 113.236 100.081 113.235 100.396V102.92C113.236 103.235 113.361 103.537 113.584 103.76C113.807 103.983 114.109 104.108 114.424 104.109C114.739 104.108 115.041 103.983 115.264 103.76C115.487 103.537 115.613 103.235 115.614 102.92V100.4C115.614 100.084 115.489 99.7812 115.266 99.5575C115.043 99.3339 114.74 99.2078 114.424 99.207Z" fill="#C1C1C1"/>
<path d="M102.966 101.93C102.693 102.089 102.494 102.35 102.412 102.655C102.331 102.96 102.374 103.285 102.532 103.559L103.793 105.74C103.951 106.012 104.211 106.211 104.515 106.292C104.82 106.374 105.144 106.332 105.417 106.175C105.689 106.017 105.888 105.757 105.97 105.452C106.051 105.148 106.009 104.823 105.852 104.55L104.593 102.369C104.435 102.096 104.175 101.896 103.87 101.814C103.565 101.731 103.24 101.773 102.966 101.93Z" fill="#C1C1C1"/>
<path d="M94.408 110.024C94.253 110.298 94.2117 110.622 94.2931 110.926C94.3745 111.229 94.5719 111.489 94.843 111.649L97.024 112.908C97.2974 113.065 97.6217 113.107 97.9262 113.026C98.2307 112.944 98.4905 112.746 98.649 112.473C98.8062 112.2 98.8487 111.875 98.7671 111.57C98.6856 111.266 98.4867 111.006 98.214 110.847L96.033 109.588C95.7591 109.433 95.4352 109.392 95.1313 109.474C94.8273 109.555 94.5676 109.753 94.408 110.024Z" fill="#C1C1C1"/>
<path d="M91.042 121.31C91.0417 121.626 91.1668 121.929 91.3897 122.152C91.6126 122.376 91.9152 122.502 92.231 122.503H94.749C95.0644 122.502 95.3666 122.377 95.5896 122.154C95.8126 121.931 95.9382 121.628 95.939 121.313C95.9382 120.998 95.8126 120.696 95.5895 120.473C95.3665 120.25 95.0643 120.125 94.749 120.124H92.231C91.9164 120.125 91.6149 120.25 91.3922 120.472C91.1695 120.694 91.0436 120.995 91.042 121.31Z" fill="#C1C1C1"/>
<path d="M93.769 132.767C93.9271 133.04 94.1868 133.238 94.4911 133.32C94.7955 133.402 95.1198 133.359 95.393 133.202L97.574 131.943C97.8466 131.785 98.0454 131.525 98.127 131.221C98.2085 130.916 98.1661 130.592 98.009 130.319C97.8509 130.046 97.5912 129.848 97.2869 129.766C96.9825 129.685 96.6582 129.727 96.385 129.884L94.209 131.143C93.9358 131.3 93.736 131.56 93.6536 131.864C93.5711 132.169 93.6126 132.493 93.769 132.767Z" fill="#C1C1C1"/>
<path d="M133.161 133.875C133.318 133.602 133.361 133.277 133.279 132.972C133.198 132.668 132.999 132.407 132.726 132.249L130.545 130.99C130.271 130.833 129.947 130.791 129.642 130.872C129.338 130.954 129.078 131.152 128.919 131.425C128.762 131.698 128.72 132.023 128.802 132.327C128.883 132.632 129.082 132.891 129.354 133.05L131.537 134.309C131.81 134.466 132.134 134.508 132.439 134.427C132.743 134.346 133.003 134.147 133.161 133.875Z" fill="#C1C1C1"/>
<path d="M136.529 122.59C136.528 122.275 136.402 121.973 136.179 121.75C135.956 121.527 135.654 121.401 135.339 121.4H132.823C132.508 121.403 132.207 121.529 131.984 121.751C131.762 121.974 131.636 122.275 131.633 122.59C131.634 122.905 131.76 123.207 131.983 123.43C132.206 123.653 132.508 123.778 132.823 123.779H135.341C135.656 123.778 135.957 123.652 136.18 123.429C136.402 123.207 136.528 122.905 136.529 122.59Z" fill="#C1C1C1"/>
<path d="M133.801 111.133C133.643 110.861 133.383 110.662 133.078 110.58C132.774 110.499 132.449 110.541 132.176 110.698L129.994 111.954C129.722 112.112 129.523 112.372 129.441 112.676C129.36 112.981 129.402 113.305 129.559 113.578C129.717 113.85 129.977 114.049 130.282 114.131C130.586 114.212 130.911 114.17 131.184 114.013L133.366 112.754C133.637 112.596 133.835 112.336 133.917 112.033C133.998 111.729 133.957 111.406 133.801 111.133Z" fill="#C1C1C1"/>
<path d="M125.709 102.574C125.436 102.417 125.112 102.375 124.807 102.456C124.503 102.538 124.243 102.737 124.085 103.009L122.826 105.19C122.669 105.463 122.627 105.787 122.708 106.092C122.79 106.396 122.988 106.656 123.261 106.814C123.534 106.971 123.858 107.014 124.163 106.932C124.467 106.85 124.727 106.652 124.885 106.379L126.144 104.198C126.301 103.925 126.344 103.601 126.262 103.296C126.18 102.992 125.982 102.732 125.709 102.574Z" fill="#C1C1C1"/>
<path d="M84.0968 153.223V147.512H85.3077V153.223H84.0968ZM91.8116 153.223H90.2725L87.7882 148.903H87.753C87.8025 149.666 87.8272 150.21 87.8272 150.536V153.223H86.7452V147.512H88.2725L90.753 151.789H90.7803C90.7413 151.047 90.7218 150.523 90.7218 150.215V147.512H91.8116V153.223ZM94.4444 153.223H93.253V147.512H96.5264V148.504H94.4444V149.977H96.3819V150.965H94.4444V153.223ZM102.827 150.36C102.827 151.305 102.593 152.032 102.124 152.539C101.655 153.047 100.983 153.301 100.108 153.301C99.2335 153.301 98.5616 153.047 98.0928 152.539C97.6241 152.032 97.3897 151.302 97.3897 150.352C97.3897 149.401 97.6241 148.676 98.0928 148.176C98.5642 147.674 99.2387 147.422 100.116 147.422C100.994 147.422 101.664 147.675 102.128 148.18C102.594 148.685 102.827 149.412 102.827 150.36ZM98.6593 150.36C98.6593 150.998 98.7803 151.478 99.0225 151.801C99.2647 152.124 99.6267 152.286 100.108 152.286C101.075 152.286 101.558 151.644 101.558 150.36C101.558 149.073 101.077 148.43 100.116 148.43C99.6345 148.43 99.2712 148.593 99.0264 148.918C98.7817 149.241 98.6593 149.722 98.6593 150.36ZM106.179 150.016H108.444V152.977C108.077 153.097 107.731 153.18 107.405 153.227C107.082 153.276 106.752 153.301 106.413 153.301C105.551 153.301 104.892 153.049 104.437 152.543C103.983 152.036 103.757 151.308 103.757 150.36C103.757 149.438 104.02 148.719 104.546 148.203C105.075 147.688 105.806 147.43 106.741 147.43C107.327 147.43 107.892 147.547 108.437 147.782L108.034 148.75C107.618 148.542 107.184 148.438 106.733 148.438C106.21 148.438 105.791 148.614 105.476 148.965C105.161 149.317 105.003 149.789 105.003 150.383C105.003 151.003 105.129 151.477 105.382 151.805C105.637 152.131 106.007 152.293 106.491 152.293C106.744 152.293 107 152.267 107.261 152.215V151.024H106.179V150.016ZM111.019 150.047H111.409C111.792 150.047 112.075 149.983 112.257 149.856C112.439 149.728 112.53 149.528 112.53 149.254C112.53 148.983 112.437 148.791 112.249 148.676C112.064 148.562 111.776 148.504 111.386 148.504H111.019V150.047ZM111.019 151.032V153.223H109.808V147.512H111.472C112.248 147.512 112.822 147.654 113.194 147.938C113.567 148.219 113.753 148.648 113.753 149.223C113.753 149.559 113.661 149.858 113.476 150.121C113.291 150.382 113.029 150.586 112.691 150.735C113.55 152.019 114.11 152.848 114.37 153.223H113.026L111.663 151.032H111.019ZM118.585 153.223L118.171 151.864H116.089L115.675 153.223H114.37L116.386 147.489H117.866L119.89 153.223H118.585ZM117.882 150.848C117.499 149.616 117.283 148.92 117.233 148.758C117.187 148.597 117.153 148.469 117.132 148.375C117.046 148.709 116.8 149.533 116.394 150.848H117.882ZM121.823 150.2H122.222C122.594 150.2 122.873 150.127 123.058 149.981C123.243 149.832 123.335 149.618 123.335 149.336C123.335 149.052 123.257 148.843 123.101 148.707C122.947 148.572 122.705 148.504 122.374 148.504H121.823V150.2ZM124.558 149.293C124.558 149.908 124.365 150.378 123.98 150.703C123.597 151.029 123.051 151.192 122.343 151.192H121.823V153.223H120.612V147.512H122.437C123.129 147.512 123.655 147.662 124.015 147.961C124.377 148.258 124.558 148.702 124.558 149.293ZM130.316 153.223H129.108V150.758H126.847V153.223H125.636V147.512H126.847V149.75H129.108V147.512H130.316V153.223ZM131.761 153.223V147.512H132.972V153.223H131.761ZM136.835 148.438C136.379 148.438 136.026 148.61 135.776 148.953C135.526 149.295 135.401 149.771 135.401 150.383C135.401 151.657 135.879 152.293 136.835 152.293C137.236 152.293 137.722 152.193 138.292 151.993V153.008C137.823 153.203 137.3 153.301 136.722 153.301C135.891 153.301 135.256 153.05 134.816 152.547C134.375 152.042 134.155 151.318 134.155 150.375C134.155 149.782 134.263 149.262 134.48 148.817C134.696 148.369 135.006 148.026 135.409 147.789C135.816 147.55 136.291 147.43 136.835 147.43C137.39 147.43 137.947 147.564 138.507 147.832L138.116 148.817C137.903 148.715 137.688 148.627 137.472 148.551C137.256 148.476 137.043 148.438 136.835 148.438Z" fill="#C1C1C1"/>
<path d="M105.787 163.719H104.576V159.016H103.025V158.008H107.338V159.016H105.787V163.719ZM108.217 163.719V158.008H109.428V163.719H108.217ZM113.068 163.719H111.857V159.016H110.306V158.008H114.619V159.016H113.068V163.719ZM115.498 163.719V158.008H116.709V162.719H119.025V163.719H115.498ZM123.31 163.719H120.021V158.008H123.31V159H121.232V160.254H123.166V161.246H121.232V162.719H123.31V163.719Z" fill="#C1C1C1"/>
<defs>
<radialGradient id="paint0_radial" cx="0" cy="0" r="1" gradientUnits="userSpaceOnUse" gradientTransform="translate(120.159 145.468) rotate(0.515648) scale(99.6247 99.6242)">
<stop/>
<stop offset="1" stop-color="white"/>
</radialGradient>
<linearGradient id="paint1_linear" x1="98.4626" y1="74.6651" x2="113.755" y2="74.6651" gradientUnits="userSpaceOnUse">
<stop stop-color="white"/>
<stop offset="1"/>
</linearGradient>
<linearGradient id="paint2_linear" x1="61.6391" y1="144.135" x2="61.6391" y2="132.138" gradientUnits="userSpaceOnUse">
<stop stop-color="white"/>
<stop offset="1"/>
</linearGradient>
<linearGradient id="paint3_linear" x1="113.735" y1="178.782" x2="131.739" y2="178.782" gradientUnits="userSpaceOnUse">
<stop/>
<stop offset="1" stop-color="white"/>
</linearGradient>
<linearGradient id="paint4_linear" x1="179.508" y1="134.626" x2="179.508" y2="117.639" gradientUnits="userSpaceOnUse">
<stop/>
<stop offset="0.096" stop-color="#1C1C1C"/>
<stop offset="0.433" stop-color="#7C7C7C"/>
<stop offset="0.706" stop-color="#C2C2C2"/>
<stop offset="0.901" stop-color="#EEEEEE"/>
<stop offset="1" stop-color="white"/>
</linearGradient>
<radialGradient id="paint5_radial" cx="0" cy="0" r="1" gradientUnits="userSpaceOnUse" gradientTransform="translate(124.179 141.504) scale(45.3303 45.3301)">
<stop/>
<stop offset="1" stop-color="white"/>
</radialGradient>
</defs>
</svg>
