<svg width="21" height="21" viewBox="0 0 21 21" fill="none" xmlns="http://www.w3.org/2000/svg">
<path d="M19.992 9.50001L16.711 7.86201L19.993 6.22101C20.1251 6.15426 20.236 6.05219 20.3136 5.92614C20.3911 5.80009 20.4322 5.655 20.4322 5.50701C20.4322 5.35903 20.3911 5.21394 20.3136 5.08789C20.236 4.96184 20.1251 4.85976 19.993 4.79301L10.574 0.0840123C10.4631 0.0287197 10.3409 -6.10352e-05 10.217 -6.10352e-05C10.0931 -6.10352e-05 9.97088 0.0287197 9.85999 0.0840123L0.440993 4.79301C0.308915 4.85976 0.19794 4.96184 0.12041 5.08789C0.0428788 5.21394 0.00183105 5.35903 0.00183105 5.50701C0.00183105 5.655 0.0428788 5.80009 0.12041 5.92614C0.19794 6.05219 0.308915 6.15426 0.440993 6.22101L3.72199 7.86201L0.440993 9.50001C0.308915 9.56676 0.19794 9.66884 0.12041 9.79489C0.0428788 9.92094 0.00183105 10.066 0.00183105 10.214C0.00183105 10.362 0.0428788 10.5071 0.12041 10.6331C0.19794 10.7592 0.308915 10.8613 0.440993 10.928L3.72299 12.569L0.440993 14.212C0.308915 14.2788 0.19794 14.3808 0.12041 14.5069C0.0428788 14.6329 0.00183105 14.778 0.00183105 14.926C0.00183105 15.074 0.0428788 15.2191 0.12041 15.3451C0.19794 15.4712 0.308915 15.5733 0.440993 15.64L9.85999 20.349C9.97088 20.4043 10.0931 20.4331 10.217 20.4331C10.3409 20.4331 10.4631 20.4043 10.574 20.349L19.993 15.64C20.1251 15.5733 20.236 15.4712 20.3136 15.3451C20.3911 15.2191 20.4322 15.074 20.4322 14.926C20.4322 14.778 20.3911 14.6329 20.3136 14.5069C20.236 14.3808 20.1251 14.2788 19.993 14.212L16.711 12.571L19.993 10.93C20.1251 10.8633 20.236 10.7612 20.3136 10.6351C20.3911 10.5091 20.4322 10.364 20.4322 10.216C20.4322 10.068 20.3911 9.92294 20.3136 9.79689C20.236 9.67084 20.1251 9.56876 19.993 9.50201L19.992 9.50001ZM10.217 1.69001L17.851 5.50701L10.217 9.32401L2.58299 5.50701L10.217 1.69001ZM17.851 14.926L10.217 18.743L2.58299 14.926L5.50799 13.464L9.85999 15.64C9.97088 15.6953 10.0931 15.7241 10.217 15.7241C10.3409 15.7241 10.4631 15.6953 10.574 15.64L14.926 13.464L17.851 14.926ZM10.217 14.033L2.58299 10.217L5.50699 8.75401L9.85899 10.93C9.96988 10.9853 10.0921 11.0141 10.216 11.0141C10.3399 11.0141 10.4621 10.9853 10.573 10.93L14.925 8.75401L17.85 10.216L10.217 14.033Z" fill="#E6E6E6"/>
</svg>
