<svg width="22" height="22" viewBox="0 0 22 22" fill="none" xmlns="http://www.w3.org/2000/svg">
<path d="M8.479 7.333H1.6C1.17545 7.33141 0.768798 7.16179 0.468968 6.86121C0.169138 6.56063 0.000525748 6.15355 0 5.729V1.6C0.0015806 1.17614 0.170659 0.770092 0.470375 0.470375C0.770092 0.170659 1.17614 0.0015806 1.6 0L8.479 0C8.90286 0.0015806 9.30891 0.170659 9.60862 0.470375C9.90834 0.770092 10.0774 1.17614 10.079 1.6V5.729C10.0774 6.15286 9.90834 6.55891 9.60862 6.85862C9.30891 7.15834 8.90286 7.32742 8.479 7.329V7.333ZM1.6 1.375C1.53927 1.375 1.48102 1.39913 1.43807 1.44207C1.39513 1.48502 1.371 1.54327 1.371 1.604V5.729C1.37126 5.78965 1.39547 5.84775 1.43836 5.89064C1.48125 5.93353 1.53935 5.95774 1.6 5.958H8.479C8.53965 5.95774 8.59775 5.93353 8.64064 5.89064C8.68353 5.84775 8.70774 5.78965 8.708 5.729V1.6C8.708 1.53927 8.68387 1.48102 8.64093 1.43807C8.59798 1.39513 8.53973 1.371 8.479 1.371L1.6 1.375Z" fill="white"/>
<path d="M8.479 22H1.6C1.17614 21.9984 0.770092 21.8293 0.470375 21.5296C0.170659 21.2299 0.0015806 20.8239 0 20.4L0 10.775C0.0015806 10.3511 0.170659 9.94509 0.470375 9.64537C0.770092 9.34565 1.17614 9.17657 1.6 9.17499H8.479C8.90286 9.17657 9.30891 9.34565 9.60862 9.64537C9.90834 9.94509 10.0774 10.3511 10.079 10.775V20.4C10.0774 20.8239 9.90834 21.2299 9.60862 21.5296C9.30891 21.8293 8.90286 21.9984 8.479 22ZM1.6 10.542C1.53927 10.542 1.48102 10.5661 1.43807 10.6091C1.39513 10.652 1.371 10.7103 1.371 10.771V20.396C1.371 20.4567 1.39513 20.515 1.43807 20.5579C1.48102 20.6009 1.53927 20.625 1.6 20.625H8.479C8.53965 20.6247 8.59775 20.6005 8.64064 20.5576C8.68353 20.5147 8.70774 20.4566 8.708 20.396V10.771C8.70774 10.7103 8.68353 10.6522 8.64064 10.6094C8.59775 10.5665 8.53965 10.5423 8.479 10.542H1.6Z" fill="white"/>
<path d="M20.396 22H13.521C13.0971 21.9984 12.6911 21.8293 12.3914 21.5296C12.0917 21.2299 11.9226 20.8239 11.921 20.4V16.275C11.9226 15.8511 12.0917 15.4451 12.3914 15.1454C12.6911 14.8457 13.0971 14.6766 13.521 14.675H20.396C20.8199 14.6766 21.2259 14.8457 21.5256 15.1454C21.8254 15.4451 21.9944 15.8511 21.996 16.275V20.4C21.9944 20.8239 21.8254 21.2299 21.5256 21.5296C21.2259 21.8293 20.8199 21.9984 20.396 22ZM13.521 16.042C13.4603 16.042 13.402 16.0661 13.3591 16.1091C13.3161 16.152 13.292 16.2103 13.292 16.271V20.396C13.292 20.4567 13.3161 20.515 13.3591 20.5579C13.402 20.6009 13.4603 20.625 13.521 20.625H20.396C20.4567 20.625 20.515 20.6009 20.5579 20.5579C20.6009 20.515 20.625 20.4567 20.625 20.396V16.271C20.625 16.2103 20.6009 16.152 20.5579 16.1091C20.515 16.0661 20.4567 16.042 20.396 16.042H13.521Z" fill="white"/>
<path d="M20.396 12.833H13.521C13.0971 12.8314 12.6911 12.6623 12.3914 12.3626C12.0917 12.0629 11.9226 11.6569 11.921 11.233V1.6C11.9226 1.17614 12.0917 0.770092 12.3914 0.470375C12.6911 0.170659 13.0971 0.0015806 13.521 0L20.396 0C20.8199 0.0015806 21.2259 0.170659 21.5256 0.470375C21.8254 0.770092 21.9944 1.17614 21.996 1.6V11.225C21.9944 11.6489 21.8254 12.0549 21.5256 12.3546C21.2259 12.6543 20.8199 12.8234 20.396 12.825V12.833ZM13.521 1.375C13.4603 1.375 13.402 1.39913 13.3591 1.44207C13.3161 1.48502 13.292 1.54327 13.292 1.604V11.229C13.292 11.2897 13.3161 11.348 13.3591 11.3909C13.402 11.4339 13.4603 11.458 13.521 11.458H20.396C20.4567 11.458 20.515 11.4339 20.5579 11.3909C20.6009 11.348 20.625 11.2897 20.625 11.229V1.6C20.625 1.53927 20.6009 1.48102 20.5579 1.43807C20.515 1.39513 20.4567 1.371 20.396 1.371H13.521V1.375Z" fill="white"/>
</svg>
