<svg width="22" height="21" viewBox="0 0 22 21" fill="none" xmlns="http://www.w3.org/2000/svg">
<path d="M21.355 4.93H16.455V1.106C16.455 0.935453 16.3875 0.771847 16.2671 0.650972C16.1468 0.530097 15.9835 0.461792 15.813 0.460999H0.645C0.473935 0.460999 0.309877 0.528953 0.188916 0.649914C0.0679552 0.770875 0 0.934934 0 1.106L0 17.777C0.000794314 18.6315 0.340614 19.4509 0.944872 20.0551C1.54913 20.6594 2.36845 20.9992 3.223 21H18.777C19.6315 20.9992 20.4509 20.6594 21.0551 20.0551C21.6594 19.4509 21.9992 18.6315 22 17.777V5.577C22.0003 5.49213 21.9838 5.40804 21.9515 5.32955C21.9192 5.25107 21.8717 5.17973 21.8118 5.11962C21.7519 5.05952 21.6807 5.01183 21.6023 4.97929C21.5239 4.94675 21.4399 4.93 21.355 4.93ZM3.223 19.711C2.71023 19.7105 2.21862 19.5065 1.85604 19.144C1.49346 18.7814 1.28953 18.2898 1.289 17.777V1.75H15.168C15.168 18.786 15.16 17.839 15.183 18.081C15.2387 18.6722 15.4571 19.2364 15.814 19.711H3.223ZM20.711 17.777C20.7105 18.2898 20.5065 18.7814 20.144 19.144C19.7814 19.5065 19.2898 19.7105 18.777 19.711H18.39C17.8772 19.7105 17.3856 19.5065 17.023 19.144C16.6605 18.7814 16.4565 18.2898 16.456 17.777V6.219H20.71L20.711 17.777Z" fill="#E6E6E6"/>
<path d="M13.063 3.55499H3.43803C3.27149 3.56155 3.11395 3.63233 2.99844 3.75248C2.88293 3.87263 2.81842 4.03283 2.81842 4.19949C2.81842 4.36616 2.88293 4.52636 2.99844 4.64651C3.11395 4.76666 3.27149 4.83743 3.43803 4.84399H13.063C13.2296 4.83743 13.3871 4.76666 13.5026 4.64651C13.6181 4.52636 13.6826 4.36616 13.6826 4.19949C13.6826 4.03283 13.6181 3.87263 13.5026 3.75248C13.3871 3.63233 13.2296 3.56155 13.063 3.55499Z" fill="#E6E6E6"/>
<path d="M13.063 6.30499H3.43803C3.27149 6.31155 3.11395 6.38232 2.99844 6.50247C2.88293 6.62262 2.81842 6.78283 2.81842 6.94949C2.81842 7.11616 2.88293 7.27637 2.99844 7.39651C3.11395 7.51666 3.27149 7.58743 3.43803 7.59399H13.063C13.2296 7.58743 13.3871 7.51666 13.5026 7.39651C13.6181 7.27637 13.6826 7.11616 13.6826 6.94949C13.6826 6.78283 13.6181 6.62262 13.5026 6.50247C13.3871 6.38232 13.2296 6.31155 13.063 6.30499Z" fill="#E6E6E6"/>
<path d="M13.063 16.617H3.43803C3.27149 16.6236 3.11395 16.6943 2.99844 16.8145C2.88293 16.9346 2.81842 17.0948 2.81842 17.2615C2.81842 17.4282 2.88293 17.5884 2.99844 17.7085C3.11395 17.8287 3.27149 17.8994 3.43803 17.906H13.063C13.2296 17.8994 13.3871 17.8287 13.5026 17.7085C13.6181 17.5884 13.6826 17.4282 13.6826 17.2615C13.6826 17.0948 13.6181 16.9346 13.5026 16.8145C13.3871 16.6943 13.2296 16.6236 13.063 16.617Z" fill="#E6E6E6"/>
<path d="M13.062 9.05499H8.24998C8.16528 9.05499 8.0814 9.07168 8.00314 9.1041C7.92489 9.13651 7.85379 9.18402 7.7939 9.24391C7.73401 9.30381 7.6865 9.3749 7.65408 9.45316C7.62167 9.53141 7.60498 9.6153 7.60498 9.7V14.513C7.60498 14.5977 7.62167 14.6816 7.65408 14.7598C7.6865 14.8381 7.73401 14.9092 7.7939 14.9691C7.85379 15.029 7.92489 15.0765 8.00314 15.1089C8.0814 15.1413 8.16528 15.158 8.24998 15.158H13.063C13.234 15.158 13.3981 15.09 13.5191 14.9691C13.64 14.8481 13.708 14.6841 13.708 14.513V9.70099C13.7081 9.61612 13.6915 9.53207 13.6591 9.45363C13.6267 9.37519 13.5791 9.30393 13.5191 9.24391C13.459 9.1839 13.3878 9.13632 13.3094 9.1039C13.2309 9.07148 13.1469 9.05486 13.062 9.05499ZM12.417 13.868H8.89398V10.345H12.417V13.868Z" fill="#E6E6E6"/>
<path d="M3.43803 11.375H5.50103C5.66757 11.3684 5.8251 11.2977 5.94061 11.1775C6.05612 11.0574 6.12064 10.8972 6.12064 10.7305C6.12064 10.5638 6.05612 10.4036 5.94061 10.2835C5.8251 10.1633 5.66757 10.0926 5.50103 10.086H3.43803C3.27149 10.0926 3.11395 10.1633 2.99844 10.2835C2.88293 10.4036 2.81842 10.5638 2.81842 10.7305C2.81842 10.8972 2.88293 11.0574 2.99844 11.1775C3.11395 11.2977 3.27149 11.3684 3.43803 11.375Z" fill="#E6E6E6"/>
<path d="M3.43803 14.125H5.50103C5.66757 14.1184 5.8251 14.0477 5.94061 13.9275C6.05612 13.8074 6.12064 13.6472 6.12064 13.4805C6.12064 13.3138 6.05612 13.1536 5.94061 13.0335C5.8251 12.9133 5.66757 12.8426 5.50103 12.836H3.43803C3.27149 12.8426 3.11395 12.9133 2.99844 13.0335C2.88293 13.1536 2.81842 13.3138 2.81842 13.4805C2.81842 13.6472 2.88293 13.8074 2.99844 13.9275C3.11395 14.0477 3.27149 14.1184 3.43803 14.125Z" fill="#E6E6E6"/>
</svg>
