<svg width="22" height="21" viewBox="0 0 22 21" fill="none" xmlns="http://www.w3.org/2000/svg">
<path d="M20.711 4.49999H20.111V3.89999C20.111 3.7305 20.0776 3.56268 20.0127 3.4061C19.9478 3.24953 19.8527 3.10727 19.7328 2.98747C19.6129 2.86767 19.4706 2.77267 19.314 2.7079C19.1573 2.64313 18.9895 2.60986 18.82 2.60999H17.789V2.09399C17.789 1.72932 17.6441 1.37958 17.3863 1.12172C17.1284 0.86386 16.7787 0.718994 16.414 0.718994C16.0493 0.718994 15.6996 0.86386 15.4417 1.12172C15.1839 1.37958 15.039 1.72932 15.039 2.09399V2.60999H11.43V2.09399C11.43 1.72932 11.2851 1.37958 11.0273 1.12172C10.7694 0.86386 10.4197 0.718994 10.055 0.718994C9.69033 0.718994 9.34059 0.86386 9.08273 1.12172C8.82487 1.37958 8.68 1.72932 8.68 2.09399V2.60999H5.07V2.09399C5.07 1.72932 4.92513 1.37958 4.66727 1.12172C4.40941 0.86386 4.05967 0.718994 3.695 0.718994C3.33033 0.718994 2.98059 0.86386 2.72273 1.12172C2.46487 1.37958 2.32 1.72932 2.32 2.09399V2.60999H1.289C0.947217 2.61026 0.619509 2.74615 0.377832 2.98783C0.136155 3.2295 0.000264845 3.55721 0 3.89899L0 17.819C0.000264845 18.1608 0.136155 18.4885 0.377832 18.7302C0.619509 18.9718 0.947217 19.1077 1.289 19.108H1.889V19.708C1.88874 19.8777 1.92194 20.0457 1.98672 20.2025C2.05149 20.3593 2.14656 20.5018 2.26648 20.6218C2.3864 20.7418 2.52881 20.837 2.68557 20.9019C2.84232 20.9668 3.01034 21.0001 3.18 21H20.711C21.0528 20.9997 21.3805 20.8638 21.6222 20.6222C21.8638 20.3805 21.9997 20.0528 22 19.711V5.78899C21.9997 5.44721 21.8638 5.1195 21.6222 4.87783C21.3805 4.63615 21.0528 4.50026 20.711 4.49999ZM15.9 2.09399C15.8969 2.02439 15.908 1.95488 15.9325 1.88967C15.957 1.82445 15.9945 1.76488 16.0427 1.71454C16.0909 1.6642 16.1487 1.62413 16.2128 1.59676C16.2769 1.56939 16.3458 1.55528 16.4155 1.55528C16.4852 1.55528 16.5541 1.56939 16.6182 1.59676C16.6823 1.62413 16.7401 1.6642 16.7883 1.71454C16.8365 1.76488 16.874 1.82445 16.8985 1.88967C16.923 1.95488 16.9341 2.02439 16.931 2.09399V3.98499C16.9251 4.11779 16.8683 4.2432 16.7722 4.33509C16.6762 4.42699 16.5484 4.47828 16.4155 4.47828C16.2826 4.47828 16.1548 4.42699 16.0588 4.33509C15.9627 4.2432 15.9058 4.11779 15.9 3.98499V2.09399ZM9.541 2.09399C9.53793 2.02439 9.549 1.95488 9.57352 1.88967C9.59804 1.82445 9.63552 1.76488 9.68369 1.71454C9.73186 1.6642 9.78973 1.62413 9.8538 1.59676C9.91787 1.56939 9.98683 1.55528 10.0565 1.55528C10.1262 1.55528 10.1951 1.56939 10.2592 1.59676C10.3233 1.62413 10.3811 1.6642 10.4293 1.71454C10.4775 1.76488 10.515 1.82445 10.5395 1.88967C10.564 1.95488 10.5751 2.02439 10.572 2.09399V3.98499C10.5661 4.11779 10.5093 4.2432 10.4132 4.33509C10.3172 4.42699 10.1894 4.47828 10.0565 4.47828C9.92358 4.47828 9.79579 4.42699 9.69975 4.33509C9.60372 4.2432 9.54685 4.11779 9.541 3.98499V2.09399ZM3.182 2.09399C3.17893 2.02439 3.19 1.95488 3.21452 1.88967C3.23904 1.82445 3.27652 1.76488 3.32469 1.71454C3.37286 1.6642 3.43073 1.62413 3.4948 1.59676C3.55887 1.56939 3.62783 1.55528 3.6975 1.55528C3.76717 1.55528 3.83613 1.56939 3.9002 1.59676C3.96427 1.62413 4.02214 1.6642 4.07031 1.71454C4.11848 1.76488 4.15596 1.82445 4.18048 1.88967C4.205 1.95488 4.21607 2.02439 4.213 2.09399V3.98499C4.20715 4.11779 4.15028 4.2432 4.05425 4.33509C3.95821 4.42699 3.83042 4.47828 3.6975 4.47828C3.56458 4.47828 3.43679 4.42699 3.34075 4.33509C3.24472 4.2432 3.18785 4.11779 3.182 3.98499V2.09399ZM1.289 3.46899H2.32V3.98499C2.32 4.34967 2.46487 4.6994 2.72273 4.95727C2.98059 5.21513 3.33033 5.35999 3.695 5.35999C4.05967 5.35999 4.40941 5.21513 4.66727 4.95727C4.92513 4.6994 5.07 4.34967 5.07 3.98499V3.46899H8.68V3.98499C8.68 4.34967 8.82487 4.6994 9.08273 4.95727C9.34059 5.21513 9.69033 5.35999 10.055 5.35999C10.4197 5.35999 10.7694 5.21513 11.0273 4.95727C11.2851 4.6994 11.43 4.34967 11.43 3.98499V3.46899H15.039V3.98499C15.039 4.34967 15.1839 4.6994 15.4417 4.95727C15.6996 5.21513 16.0493 5.35999 16.414 5.35999C16.7787 5.35999 17.1284 5.21513 17.3863 4.95727C17.6441 4.6994 17.789 4.34967 17.789 3.98499V3.46899H18.82C18.934 3.46899 19.0434 3.5143 19.1241 3.59494C19.2047 3.67558 19.25 3.78495 19.25 3.89899V7.76599H0.859V3.89899C0.859 3.78495 0.904303 3.67558 0.984944 3.59494C1.06558 3.5143 1.17496 3.46899 1.289 3.46899ZM21.141 19.711C21.141 19.825 21.0957 19.9344 21.0151 20.0151C20.9344 20.0957 20.825 20.141 20.711 20.141H3.18C3.06596 20.141 2.95658 20.0957 2.87594 20.0151C2.7953 19.9344 2.75 19.825 2.75 19.711V19.111H8.121C8.17915 19.1138 8.23726 19.1048 8.29181 19.0845C8.34636 19.0641 8.39622 19.033 8.43837 18.9928C8.48051 18.9526 8.51406 18.9043 8.53699 18.8508C8.55991 18.7973 8.57173 18.7397 8.57173 18.6815C8.57173 18.6233 8.55991 18.5657 8.53699 18.5122C8.51406 18.4587 8.48051 18.4104 8.43837 18.3702C8.39622 18.33 8.34636 18.2989 8.29181 18.2785C8.23726 18.2582 8.17915 18.2492 8.121 18.252H1.289C1.17496 18.252 1.06558 18.2067 0.984944 18.1261C0.904303 18.0454 0.859 17.936 0.859 17.822V8.62199H19.25V17.822C19.25 17.936 19.2047 18.0454 19.1241 18.1261C19.0434 18.2067 18.934 18.252 18.82 18.252H11.988C11.9299 18.2492 11.8717 18.2582 11.8172 18.2785C11.7626 18.2989 11.7128 18.33 11.6706 18.3702C11.6285 18.4104 11.5949 18.4587 11.572 18.5122C11.5491 18.5657 11.5373 18.6233 11.5373 18.6815C11.5373 18.7397 11.5491 18.7973 11.572 18.8508C11.5949 18.9043 11.6285 18.9526 11.6706 18.9928C11.7128 19.033 11.7626 19.0641 11.8172 19.0845C11.8717 19.1048 11.9299 19.1138 11.988 19.111H18.82C18.9895 19.1109 19.1573 19.0773 19.3138 19.0123C19.4703 18.9473 19.6125 18.8521 19.7322 18.7321C19.8519 18.6121 19.9468 18.4697 20.0115 18.313C20.0761 18.1564 20.1093 17.9885 20.109 17.819V5.35999H20.709C20.823 5.35999 20.9324 5.4053 21.0131 5.48594C21.0937 5.56658 21.139 5.67595 21.139 5.78999L21.141 19.711Z" fill="#E6E6E6"/>
<path d="M11.653 16.586C11.7148 16.6181 11.7834 16.6349 11.853 16.635C11.9154 16.635 11.9769 16.6214 12.0335 16.5951C12.09 16.5689 12.1402 16.5307 12.1804 16.4831C12.2207 16.4355 12.2501 16.3797 12.2666 16.3196C12.2831 16.2595 12.2863 16.1965 12.276 16.135L11.971 14.354L13.265 13.093C13.3227 13.0372 13.3636 12.9662 13.383 12.8883C13.4024 12.8104 13.3995 12.7286 13.3747 12.6522C13.3499 12.5759 13.3042 12.508 13.2427 12.4563C13.1812 12.4047 13.1065 12.3713 13.027 12.36L11.239 12.1L10.439 10.48C10.4035 10.4081 10.3486 10.3476 10.2804 10.3052C10.2123 10.2629 10.1337 10.2405 10.0535 10.2405C9.97332 10.2405 9.89472 10.2629 9.82659 10.3052C9.75847 10.3476 9.70355 10.4081 9.66802 10.48L8.86801 12.1L7.08001 12.36C7.00052 12.3713 6.92579 12.4047 6.86433 12.4563C6.80286 12.508 6.75713 12.5759 6.73233 12.6522C6.70754 12.7286 6.70467 12.8104 6.72406 12.8883C6.74345 12.9662 6.78432 13.0372 6.84201 13.093L8.13601 14.354L7.83101 16.135C7.81724 16.214 7.8259 16.2953 7.85601 16.3697C7.88611 16.444 7.93647 16.5085 8.00135 16.5556C8.06623 16.6028 8.14304 16.6309 8.22306 16.6366C8.30307 16.6423 8.38308 16.6255 8.45401 16.588L10.054 15.747L11.653 16.586ZM8.82601 15.42L9.02602 14.275C9.03766 14.2064 9.03245 14.1359 9.01085 14.0697C8.98925 14.0035 8.95191 13.9436 8.90202 13.895L8.07002 13.084L9.22001 12.917C9.28902 12.907 9.35458 12.8804 9.41102 12.8395C9.46746 12.7985 9.51311 12.7445 9.54402 12.682L10.058 11.64L10.572 12.682C10.6029 12.7445 10.6486 12.7985 10.705 12.8395C10.7614 12.8804 10.827 12.907 10.896 12.917L12.046 13.084L11.214 13.895C11.1642 13.9436 11.1269 14.0036 11.1053 14.0698C11.0837 14.1359 11.0785 14.2064 11.09 14.275L11.29 15.42L10.262 14.879C10.2003 14.8466 10.1317 14.8297 10.062 14.8297C9.99233 14.8297 9.9237 14.8466 9.86202 14.879L8.82601 15.42Z" fill="#E6E6E6"/>
<path d="M10.055 18.25C9.95533 18.249 9.85845 18.2827 9.78089 18.3453C9.70332 18.4079 9.64988 18.4954 9.62973 18.593C9.60958 18.6906 9.62396 18.7922 9.6704 18.8804C9.71684 18.9685 9.79246 19.0378 9.88434 19.0764C9.97622 19.115 10.0787 19.1205 10.1741 19.0919C10.2696 19.0633 10.3522 19.0025 10.4078 18.9198C10.4633 18.8371 10.4885 18.7376 10.4788 18.6384C10.4692 18.5392 10.4254 18.4465 10.355 18.376C10.2753 18.2964 10.1676 18.2512 10.055 18.25Z" fill="#E6E6E6"/>
</svg>
