<svg width="22" height="23" viewBox="0 0 22 23" fill="none" xmlns="http://www.w3.org/2000/svg">
<path d="M21.214 8.724H19.884C19.774 8.4115 19.6475 8.10507 19.505 7.806L20.448 6.867C20.5952 6.71962 20.6779 6.51982 20.6779 6.3115C20.6779 6.10318 20.5952 5.90338 20.448 5.756L17.111 2.422C16.9636 2.27478 16.7638 2.19208 16.5555 2.19208C16.3472 2.19208 16.1474 2.27478 16 2.422L15.057 3.365C14.7589 3.22183 14.4534 3.09432 14.142 2.983V1.653C14.142 1.44472 14.0593 1.24495 13.9121 1.09757C13.765 0.950197 13.5653 0.867269 13.357 0.867004L8.643 0.867004C8.43454 0.867004 8.23462 0.949815 8.08721 1.09722C7.93981 1.24462 7.857 1.44454 7.857 1.653V2.983C7.54426 3.09321 7.23751 3.21972 6.938 3.362L6 2.419C5.85262 2.27178 5.65282 2.18908 5.4445 2.18908C5.23618 2.18908 5.03638 2.27178 4.889 2.419L1.555 5.756C1.40777 5.90338 1.32507 6.10318 1.32507 6.3115C1.32507 6.51982 1.40777 6.71962 1.555 6.867L2.498 7.81C2.35454 8.10802 2.22702 8.41345 2.116 8.725H0.786C0.577713 8.725 0.377942 8.80768 0.230567 8.95486C0.0831924 9.10205 0.000264996 9.30172 0 9.51L0 14.224C0 14.4325 0.0828105 14.6324 0.230214 14.7798C0.377618 14.9272 0.57754 15.01 0.786 15.01H2.116C2.22596 15.3225 2.35247 15.6289 2.495 15.928L1.552 16.867C1.40477 17.0144 1.32207 17.2142 1.32207 17.4225C1.32207 17.6308 1.40477 17.8306 1.552 17.978L4.886 21.312C5.03338 21.4592 5.23318 21.5419 5.4415 21.5419C5.64982 21.5419 5.84962 21.4592 5.997 21.312L6.94 20.369C7.23919 20.5112 7.54561 20.6377 7.858 20.748V22.078C7.8576 22.1814 7.87761 22.2838 7.91687 22.3795C7.95613 22.4751 8.01388 22.5621 8.0868 22.6354C8.15972 22.7087 8.24638 22.7669 8.34182 22.8066C8.43727 22.8463 8.53961 22.8669 8.643 22.867H13.357C13.5655 22.867 13.7654 22.7842 13.9128 22.6368C14.0602 22.4894 14.143 22.2895 14.143 22.081V20.751C14.4557 20.6408 14.7625 20.5143 15.062 20.372L16.005 21.315C16.1524 21.4622 16.3522 21.5449 16.5605 21.5449C16.7688 21.5449 16.9686 21.4622 17.116 21.315L20.45 17.981C20.5972 17.8336 20.6799 17.6338 20.6799 17.4255C20.6799 17.2172 20.5972 17.0174 20.45 16.87L19.507 15.927C19.6492 15.6279 19.7754 15.3215 19.885 15.009H21.215C21.4231 15.0087 21.6226 14.926 21.7698 14.7788C21.9169 14.6316 21.9997 14.4321 22 14.224V9.51C22 9.40679 21.9797 9.30458 21.9402 9.20922C21.9007 9.11385 21.8428 9.02721 21.7698 8.95422C21.6968 8.88123 21.6102 8.82334 21.5148 8.78383C21.4194 8.74433 21.3172 8.724 21.214 8.724ZM20.428 13.438H19.308C19.137 13.438 18.9707 13.4938 18.8343 13.5968C18.6979 13.6998 18.5988 13.8446 18.552 14.009C18.3869 14.5959 18.1536 15.1614 17.857 15.694C17.7725 15.8438 17.7395 16.0171 17.763 16.1874C17.7865 16.3577 17.8652 16.5157 17.987 16.637L18.773 17.427L16.554 19.646L15.764 18.86C15.6427 18.7382 15.4847 18.6595 15.3144 18.636C15.1441 18.6125 14.9708 18.6456 14.821 18.73C14.2886 19.0264 13.7234 19.2596 13.137 19.425C12.9724 19.4716 12.8274 19.5706 12.7242 19.7071C12.621 19.8435 12.5651 20.0099 12.565 20.181V21.297H9.429V20.177C9.42893 20.0059 9.37304 19.8395 9.2698 19.7031C9.16657 19.5666 9.02163 19.4676 8.857 19.421C8.27055 19.2556 7.7054 19.0224 7.173 18.726C7.02323 18.6416 6.84991 18.6085 6.67958 18.632C6.50926 18.6555 6.35133 18.7342 6.23 18.856L5.444 19.642L3.221 17.423L4.007 16.633C4.12883 16.5117 4.20751 16.3537 4.23099 16.1834C4.25447 16.0131 4.22145 15.8398 4.137 15.69C3.84035 15.1574 3.60709 14.5919 3.442 14.005C3.3947 13.842 3.29588 13.6986 3.16033 13.5964C3.02477 13.4942 2.85977 13.4386 2.69 13.438H1.571V10.296H2.691C2.86197 10.296 3.02827 10.2402 3.1647 10.1372C3.30112 10.0342 3.40023 9.88945 3.447 9.725C3.6121 9.13813 3.84535 8.57262 4.142 8.04C4.22645 7.89024 4.25947 7.71691 4.23599 7.54659C4.21251 7.37626 4.13383 7.21833 4.012 7.097L3.226 6.311L5.444 4.088L6.23 4.874C6.35133 4.99583 6.50926 5.07451 6.67958 5.09799C6.84991 5.12147 7.02323 5.08846 7.173 5.004C7.7054 4.70764 8.27055 4.4744 8.857 4.309C9.02098 4.26261 9.16543 4.16418 9.2686 4.02854C9.37177 3.89291 9.42807 3.72742 9.429 3.557V2.438H12.572V3.558C12.5721 3.7291 12.628 3.8955 12.7312 4.03195C12.8344 4.16839 12.9794 4.26742 13.144 4.314C13.7304 4.47941 14.2956 4.71265 14.828 5.009C14.9778 5.09346 15.1511 5.12647 15.3214 5.10299C15.4917 5.07951 15.6497 5.00083 15.771 4.879L16.561 4.093L18.78 6.312L17.994 7.098C17.8722 7.21933 17.7935 7.37726 17.77 7.54759C17.7465 7.71791 17.7795 7.89124 17.864 8.041C18.1607 8.57361 18.3939 9.13913 18.559 9.726C18.6058 9.89045 18.7049 10.0352 18.8413 10.1382C18.9777 10.2412 19.144 10.297 19.315 10.297H20.431V13.44L20.428 13.438Z" fill="#E6E6E6"/>
<path d="M11 6.36701C9.91221 6.36701 8.84884 6.68958 7.94437 7.29393C7.0399 7.89827 6.33495 8.75726 5.91866 9.76225C5.50238 10.7672 5.39346 11.8731 5.60568 12.94C5.8179 14.0069 6.34173 14.9869 7.11092 15.7561C7.88011 16.5253 8.86012 17.0491 9.92701 17.2613C10.9939 17.4735 12.0998 17.3646 13.1048 16.9483C14.1098 16.5321 14.9687 15.8271 15.5731 14.9226C16.1774 14.0182 16.5 12.9548 16.5 11.867C16.5 11.1447 16.3577 10.4295 16.0813 9.76225C15.8049 9.09496 15.3998 8.48864 14.8891 7.97792C14.3784 7.46719 13.7721 7.06207 13.1048 6.78567C12.4375 6.50927 11.7223 6.36701 11 6.36701ZM11 15.796C10.2229 15.796 9.46329 15.5656 8.81717 15.1338C8.17105 14.7021 7.66746 14.0885 7.37008 13.3706C7.0727 12.6526 6.9949 11.8626 7.1465 11.1005C7.2981 10.3383 7.6723 9.63826 8.22178 9.08878C8.77126 8.5393 9.47135 8.1651 10.2335 8.0135C10.9957 7.8619 11.7856 7.9397 12.5036 8.23708C13.2215 8.53446 13.8351 9.03805 14.2669 9.68417C14.6986 10.3303 14.929 11.0899 14.929 11.867C14.9295 12.3833 14.8283 12.8946 14.6311 13.3718C14.4339 13.8489 14.1445 14.2826 13.7796 14.6478C13.4147 15.0131 12.9814 15.3028 12.5045 15.5005C12.0275 15.6982 11.5163 15.8 11 15.8V15.796Z" fill="#E6E6E6"/>
</svg>
